<svg width="298" height="182" viewBox="0 0 298 182" fill="none" xmlns="http://www.w3.org/2000/svg">
<g clip-path="url(#clip0_152_1373)">
<path d="M18.1562 120.214C18.1562 120.214 35.4239 94.3247 70.9663 90.3888C106.509 86.4508 149.981 110.69 200.953 86.4727C251.924 62.2555 260.249 36.6686 254.86 20.2896C250.901 8.25472 231.975 7.22743 223.215 13.6779C214.455 20.1284 210.398 31.7153 215.102 36.8518C219.806 41.9883 228.358 38.9742 230.572 30.9429C232.784 22.9116 227.439 21.9281 227.439 21.9281C227.439 21.9281 238.133 23.8931 232.938 38.6436C227.746 53.3921 204.729 51.6341 205.009 35.1855C205.289 18.7387 219.24 4.86423 237.847 0.641566C248.909 -1.86894 267.025 2.29797 266.981 25.5734C266.937 48.8489 235.521 84.6589 198.307 95.2186C161.093 105.778 125.222 99.7837 95.2445 94.4521C59.6721 88.1251 27.1205 108.273 18.1562 120.214Z" fill="#E6F2F2"/>
<path d="M53.7148 122.436C53.7148 122.436 89.4415 106.849 146.043 106.868C202.645 106.886 232.974 130.362 235.142 145.606C237.312 160.85 224.399 183.688 202.851 180.794C181.303 177.902 177.612 164.137 181.884 151.166C186.156 138.194 199.346 136.558 205.954 139.845C212.562 143.131 210.085 154.948 201.972 159.298C201.972 159.298 208.282 154.049 205.209 146.743C202.134 139.436 189.116 144.141 187.397 153.163C185.677 162.186 192.962 173.638 205.934 171.332C218.906 169.027 223.229 155.707 222.435 144.129C221.638 132.55 198.034 115.775 145.841 112.359C93.6472 108.941 53.7148 122.436 53.7148 122.436Z" fill="#E6F2F2"/>
<path d="M195.764 103.274C195.764 103.274 245.782 108.215 272.766 86.4169C299.751 64.6167 291.249 46.4081 281.661 49.8384C272.074 53.2686 268.336 62.7791 272.815 65.194C277.293 67.609 277.923 59.3488 277.923 59.3488C277.923 59.3488 279.915 69.4725 269.453 72.2815C258.992 75.0907 256.538 55.4188 271.287 45.7969C286.037 36.1749 294.733 44.7874 296.39 52.8804C298.05 60.9754 295.848 76.9204 278.009 90.1438C257.551 105.312 219.338 109.786 195.764 103.274Z" fill="#E6F2F2"/>
<path d="M113.689 79.0648C113.689 79.0648 145.939 83.2834 163.959 71.8279C181.978 60.3723 176.937 49.9063 170.643 51.5548C164.349 53.2032 161.691 58.4332 164.53 59.9184C167.366 61.4036 167.985 56.7847 167.985 56.7847C167.985 56.7847 169.018 62.5245 162.173 63.7987C155.331 65.0728 154.24 53.9597 164.031 48.9865C173.822 44.0132 179.231 49.098 180.1 53.6889C180.969 58.2799 179.141 67.1652 167.258 74.0736C153.632 81.9953 128.783 83.4009 113.689 79.0648Z" fill="#E6F2F2"/>
<path d="M51.5566 169.636C51.5566 169.636 73.919 140.626 99.108 137.212C124.297 133.796 129.812 147.416 123.176 150.786C116.542 154.157 109.572 151.383 110.517 147.8C111.461 144.216 116.208 148.013 116.208 148.013C116.208 148.013 111.774 141.893 105.036 146.039C98.2972 150.185 107.622 161.325 120.159 158.312C132.697 155.298 132.425 146.379 128.913 141.451C125.4 136.524 115.747 129.716 99.7325 132.567C81.3618 135.837 59.8542 153.871 51.5566 169.636Z" fill="#E6F2F2"/>
<path d="M214.684 112.498C214.684 112.498 257.429 109.037 273.392 122.536C289.354 136.034 277.049 147.528 270.125 145.443C263.202 143.356 262.874 137.412 267.274 135.863C271.674 134.314 269.798 139.496 269.798 139.496C269.798 139.496 274.38 133.126 266.555 131.435C258.73 129.744 250.995 142.116 260.386 148.055C269.776 153.992 279.457 148.521 283.174 143.426C286.892 138.331 289.7 128.333 278.804 120.157C266.307 110.777 236.043 108.241 214.684 112.498Z" fill="#E6F2F2"/>
<path d="M26.9219 142.596C26.9219 142.596 52.0808 125.807 96.2892 119.376C140.495 112.945 188.499 126.471 188.499 126.471C188.499 126.471 108.496 104.738 26.9219 142.596Z" fill="#E6F2F2"/>
<path d="M87.8672 82.3554C87.8672 82.3554 123.354 92.7398 159.581 90.9302C195.806 89.1224 219.153 69.2275 219.153 69.2275C219.153 69.2275 192.423 86.9583 153.578 87.7228C112.028 88.5391 87.8672 82.3554 87.8672 82.3554Z" fill="#E6F2F2"/>
<path d="M0 142.319C0 142.319 23.4234 113.841 57.8548 103.746C93.3211 93.3451 108.467 103.73 108.467 103.73C108.467 103.73 61.438 86.0883 0 142.319Z" fill="#E6F2F2"/>
<path d="M185.061 137.778C185.061 137.778 160.617 121.679 118.617 128.116C118.617 128.116 152.087 124.847 185.061 137.778Z" fill="#E6F2F2"/>
<path d="M258.066 104.932C258.066 104.932 285.445 101.034 297.998 75.6362C297.998 75.6362 296.15 99.2999 258.066 104.932Z" fill="#E6F2F2"/>
<path d="M273.996 110.505C273.996 110.505 298.344 117.389 288.779 144.01C288.779 144.01 308.375 120.026 273.996 110.505Z" fill="#E6F2F2"/>
<path d="M222.301 120.375C222.301 120.375 238.296 125.253 240.7 146.574C243.102 167.893 231.477 178.537 231.477 178.537C231.477 178.537 239.217 174.586 244.041 159.53C248.865 144.475 237.269 122.689 222.301 120.375Z" fill="#E6F2F2"/>
<path d="M212.822 96.5465C212.822 96.5465 246.078 103.666 272.08 81.0137C272.08 81.0137 246.959 97.9761 212.822 96.5465Z" fill="#E6F2F2"/>
</g>
<defs>
<clipPath id="clip0_152_1373">
<rect width="298" height="182" fill="white"/>
</clipPath>
</defs>
</svg>
